# xmcd CD database file
#
# Track frame offsets:
#	150
#	6626
#	37924
#	62662
#	96919
#	126721
#	160904
#
# Disc length: 2744 seconds
#
# Revision: 0
# Processed by: cddbd v1.5.2PL0 Copyright (c) Steve Scherf et al.
# Submitted via: CDex 1.70beta2
#
DISCID=5e0ab607
DTITLE=Georg Schroeter, Marc Breitfelder - LIVE IN SWEDEN 1/2
DYEAR=2007
DGENRE=Blues
TTITLE0=Intro
TTITLE1=Close your Eyes
TTITLE2=Respect yourself
TTITLE3=Boogie
TTITLE4=Dream
TTITLE5=Station to Station
TTITLE6=Sunnyland
EXTD=YEAR: 2007
EXTT0=
EXTT1=
EXTT2=
EXTT3=
EXTT4=
EXTT5=
EXTT6=
PLAYORDER=
